<?xml version="1.0" standalone="no"?>
<!DOCTYPE svg PUBLIC "-//W3C//DTD SVG 1.1//EN" "http://www.w3.org/Graphics/SVG/1.1/DTD/svg11.dtd" >
<svg xmlns="http://www.w3.org/2000/svg">
<defs>
  <font id="Genplan_icon_font" horiz-adv-x="256">
    <font-face font-family="Genplan_icon_font"
      units-per-em="256" ascent="256"
      descent="0" />
    <missing-glyph horiz-adv-x="0" />
    <glyph glyph-name="apartment"
      unicode="&#xEA01;"
      horiz-adv-x="256" d="M85.343 225.596C61.057 216.688 40.469 208.804 39.593 208.077C38.155 206.884 38 196.867 38 104.959C38 48.972 38.273 2.452 38.607 1.582C39.147 0.175 43.731 0 80 0C116.269 0 120.853 0.175 121.393 1.582C121.727 2.452 122 11.002 122 20.582L122 38L132 38L142 38L142 20.582C142 11.002 142.273 2.452 142.607 1.582C143.147 0.175 147.731 0 184 0C220.269 0 224.853 0.175 225.393 1.582C225.727 2.452 226 49.016 226 105.059L226 206.954L223.75 208.427C220.526 210.539 133.647 242.021 131.385 241.897C130.348 241.84 109.629 234.505 85.343 225.596M173.75 214.364L214 199.726L214 140.863L214 82L132 82L50 82L50 140.863L50 199.726L89.75 214.279C111.613 222.284 130.4 228.871 131.5 228.918C132.6 228.965 151.613 222.416 173.75 214.364M88 176C86.444 174.444 86 172.667 86 168C86 161.479 88.087 158 92 158C95.913 158 98 161.479 98 168C98 174.521 95.913 178 92 178C90.9 178 89.1 177.1 88 176M128 176C126.444 174.444 126 172.667 126 168C126 161.479 128.087 158 132 158C135.913 158 138 161.479 138 168C138 174.521 135.913 178 132 178C130.9 178 129.1 177.1 128 176M168 176C166.444 174.444 166 172.667 166 168C166 161.479 168.087 158 172 158C175.913 158 178 161.479 178 168C178 174.521 175.913 178 172 178C170.9 178 169.1 177.1 168 176M88 128C86.444 126.444 86 124.667 86 120C86 113.479 88.087 110 92 110C95.913 110 98 113.479 98 120C98 126.521 95.913 130 92 130C90.9 130 89.1 129.1 88 128M128 128C126.444 126.444 126 124.667 126 120C126 113.479 128.087 110 132 110C135.913 110 138 113.479 138 120C138 126.521 135.913 130 132 130C130.9 130 129.1 129.1 128 128M168 128C166.444 126.444 166 124.667 166 120C166 113.479 168.087 110 172 110C175.913 110 178 113.479 178 120C178 126.521 175.913 130 172 130C170.9 130 169.1 129.1 168 128M214 40L214 10L184 10L154 10L154 28C154 51.725 155.725 50 132 50C108.275 50 110 51.725 110 28L110 10L80 10L50 10L50 40L50 70L132 70L214 70L214 40" />
    <glyph glyph-name="award-49"
      unicode="&#xEA02;"
      horiz-adv-x="256" d="M8 248C6.025 246.025 6 244.667 6 140C6 35.333 6.025 33.975 8 32C9.957 30.043 11.333 30 72 30C132.667 30 134.043 30.043 136 32C137.1 33.1 138 34.9 138 36C138 37.1 137.1 38.9 136 40C134.046 41.954 132.667 42 76 42L18 42L18 140L18 238L104 238L190 238L190 216.019L190 194.038L187.25 193.48C171.146 190.211 162.45 185.676 151.995 175.095C128.216 151.032 127.871 114.473 151.188 89.506L158 82.212L158 46.106C158 11.333 158.074 9.926 160 8C161.1 6.9 162.671 6 163.492 6C164.312 6 171.962 9.481 180.492 13.735L196 21.47L211.508 13.735C220.038 9.481 227.688 6 228.508 6C229.329 6 230.9 6.9 232 8C233.926 9.926 234 11.333 234 46.106L234 82.212L240.99 89.697C245.493 94.518 249.319 99.887 251.74 104.783L255.5 112.384L255.81 130.563C256.109 148.04 256.024 148.981 253.607 154.929C250.416 162.781 243.563 172.409 236.901 178.399C228.095 186.316 218.983 190.59 204.75 193.48L202 194.038L202 220.019C202 244.667 201.897 246.103 200 248C198.028 249.972 196.667 250 104 250C11.333 250 9.972 249.972 8 248M48 184C46.9 182.9 46 181.1 46 180C46 178.9 46.9 177.1 48 176C49.922 174.078 51.333 174 84 174C116.667 174 118.078 174.078 120 176C121.1 177.1 122 178.9 122 180C122 181.1 121.1 182.9 120 184C118.078 185.922 116.667 186 84 186C51.333 186 49.922 185.922 48 184M207.959 180.441C224.755 176.621 239.758 161.969 244.167 145.081C251.333 117.628 235.282 90.654 207.54 83.53C182.148 77.01 154.495 93.4 147.833 118.919C143.045 137.263 148.424 155.703 162.336 168.63C174.877 180.284 190.671 184.373 207.959 180.441M48 144C46.9 142.9 46 141.1 46 140C46 138.9 46.9 137.1 48 136C49.897 134.103 51.333 134 76 134C100.667 134 102.103 134.103 104 136C105.1 137.1 106 138.9 106 140C106 141.1 105.1 142.9 104 144C102.103 145.897 100.667 146 76 146C51.333 146 49.897 145.897 48 144M48 104C46.9 102.9 46 101.1 46 100C46 98.9 46.9 97.1 48 96C49.897 94.103 51.333 94 76 94C100.667 94 102.103 94.103 104 96C105.1 97.1 106 98.9 106 100C106 101.1 105.1 102.9 104 104C102.103 105.897 100.667 106 76 106C51.333 106 49.897 105.897 48 104M181.91 71.962C193.733 68.832 201.967 69.401 219.75 74.578L222 75.233L222 48.617C222 33.977 221.78 22 221.51 22C221.241 22 215.391 24.804 208.51 28.231L196 34.463L183.49 28.231C176.609 24.804 170.759 22 170.49 22C170.22 22 170 33.977 170 48.617L170 75.233L172.25 74.578C173.488 74.218 177.834 73.04 181.91 71.962" />
    <glyph glyph-name="bus-front-10"
      unicode="&#xEA03;"
      horiz-adv-x="256" d="M41.063 247.808C33.735 244.995 26.926 238.091 24.143 230.653C22.007 224.944 22 224.604 22 129.462C22 35.333 22.028 33.972 24 32C25.556 30.444 27.333 30 32 30L38 30L38 16.582C38 9.202 38.273 2.452 38.607 1.582C39.138 0.198 42.321 0 64 0C85.679 0 88.862 0.198 89.393 1.582C89.727 2.452 90 9.202 90 16.582L90 30L132 30L174 30L174 16.582C174 9.202 174.273 2.452 174.607 1.582C175.138 0.198 178.321 0 200 0C221.679 0 224.862 0.198 225.393 1.582C225.727 2.452 226 9.202 226 16.582L226 30L232 30C236.667 30 238.444 30.444 240 32C241.972 33.972 242 35.333 242 129.462C242 224.714 241.995 224.938 239.849 230.675C237.053 238.146 230.065 245.084 222.474 247.924C217.012 249.967 215.584 249.999 131.712 249.948C47.774 249.897 46.419 249.865 41.063 247.808M219.5 236.119C226.826 232.755 230 226.834 230 216.532L230 210L132 210L34 210L34 216.532C34 226.834 37.174 232.755 44.5 236.119C48.28 237.855 53.091 237.956 132 237.956C210.909 237.956 215.72 237.855 219.5 236.119M230 156L230 114L132 114L34 114L34 156L34 198L132 198L230 198L230 156M230 72L230 42L132 42L34 42L34 72L34 102L132 102L230 102L230 72M59.5 83.097C55.049 81.142 52.5 77.079 52.5 71.939C52.5 67.738 52.966 66.572 55.769 63.769C58.583 60.955 59.73 60.5 64 60.5C68.27 60.5 69.417 60.955 72.231 63.769C75.045 66.583 75.5 67.73 75.5 72C75.5 76.213 75.033 77.428 72.407 80.055C69.105 83.357 63.239 84.739 59.5 83.097M195.5 83.097C191.049 81.142 188.5 77.079 188.5 71.939C188.5 67.738 188.966 66.572 191.769 63.769C194.583 60.955 195.73 60.5 200 60.5C204.27 60.5 205.417 60.955 208.231 63.769C211.045 66.583 211.5 67.73 211.5 72C211.5 76.213 211.033 77.428 208.407 80.055C205.105 83.357 199.239 84.739 195.5 83.097M78 20L78 10L64 10L50 10L50 20L50 30L64 30L78 30L78 20M214 20L214 10L200 10L186 10L186 20L186 30L200 30L214 30L214 20" />
    <glyph glyph-name="ctrl-down"
      unicode="&#xEA04;"
      horiz-adv-x="256" d="M128 64C124.288 64 120.592 65.28 117.584 67.856L-6.56 174.256L14.272 198.56L128 101.072L241.728 198.56L262.56 174.256L138.416 67.856C135.408 65.28 131.712 64 128 64z" />
    <glyph glyph-name="e-remove"
      unicode="&#xEA05;"
      horiz-adv-x="256" d="M34.455 221.545C32.857 219.948 32 217.958 32 215.845C32 212.904 35.955 208.638 74.229 170.295L116.457 127.989L74.229 85.717C36.901 48.351 32 43.088 32 40.369C32 36.055 35.961 32 40.175 32C43.15 32 47.266 35.816 85.723 74.234L128 116.468L170.277 74.234C208.734 35.816 212.85 32 215.825 32C220.039 32 224 36.055 224 40.369C224 43.088 219.099 48.351 181.771 85.717L139.543 127.989L181.771 170.295C220.045 208.638 224 212.904 224 215.845C224 220.206 220.195 224 215.823 224C212.851 224 208.722 220.172 170.277 181.766L128 139.532L85.723 181.766C47.278 220.172 43.149 224 40.177 224C38.041 224 36.059 223.15 34.455 221.545" />
    <glyph glyph-name="eco-home"
      unicode="&#xEA06;"
      horiz-adv-x="256" d="M125.61 238.532C123.112 236.625 95.399 214.527 64.026 189.425C26.272 159.217 6.789 143.007 6.407 141.485C5.032 136.009 10.794 132.325 15.703 135.541C17.182 136.51 43.954 157.756 75.196 182.753L132 228.203L188.804 182.753C220.046 157.756 246.818 136.51 248.297 135.541C250.025 134.409 251.881 134.004 253.493 134.409C255.732 134.971 256 135.549 256 139.825L256 144.612L197.345 191.556C165.084 217.375 137.522 239.285 136.095 240.243C132.403 242.724 130.748 242.454 125.61 238.532M164.5 151.025C131.132 143.158 107.101 132.096 93.682 118.426C80.065 104.555 74.692 82.315 80.591 64.245L82.307 58.99L76.154 52.581C69.579 45.735 68.757 43.243 72 40C75.227 36.773 77.737 37.581 84.423 44.001L90.672 50.002L98.496 48.001C108.364 45.477 115.609 45.47 125.404 47.975C149.296 54.086 164.603 71.979 176.323 107.5C180.458 120.031 184.515 136.273 185.521 144.323C186.116 149.084 185.932 150.068 184.102 151.898C181.417 154.583 179.167 154.483 164.5 151.025M171.985 138.25C171.929 131.851 163.341 104.737 157.483 92.461C148.185 72.98 136.994 62.68 121.11 58.987C116.027 57.805 102.533 58.134 101.195 59.472C100.882 59.784 107.235 66.702 115.313 74.845C130.697 90.352 131.803 92.197 128 96C124.2 99.8 122.349 98.694 106.941 83.408C98.851 75.383 91.999 69.195 91.716 69.658C90.347 71.891 89.941 82.16 90.992 87.954C95.088 110.545 114.252 124.773 156.39 136.51C170.539 140.451 172.005 140.615 171.985 138.25M40 128C38.046 126.046 38 124.667 38 68C38 11.333 38.046 9.954 40 8C41.97 6.03 43.333 6 132 6C220.667 6 222.03 6.03 224 8C225.954 9.954 226 11.333 226 68C226 124.667 225.954 126.046 224 128C222.9 129.1 221.1 130 220 130C218.9 130 217.1 129.1 216 128C214.049 126.049 214 124.667 214 72L214 18L132 18L50 18L50 72C50 124.667 49.951 126.049 48 128C46.9 129.1 45.1 130 44 130C42.9 130 41.1 129.1 40 128" />
    <glyph glyph-name="home"
      unicode="&#xEA07;"
      horiz-adv-x="256" d="M125.61 238.532C123.112 236.625 95.399 214.527 64.026 189.425C26.272 159.217 6.789 143.007 6.407 141.485C5.032 136.009 10.794 132.325 15.703 135.541C17.182 136.51 43.954 157.756 75.196 182.753L132 228.203L188.804 182.753C220.046 157.756 246.818 136.51 248.297 135.541C250.025 134.409 251.881 134.004 253.493 134.409C255.732 134.971 256 135.549 256 139.825L256 144.612L197.345 191.556C165.084 217.375 137.522 239.285 136.095 240.243C132.403 242.724 130.748 242.454 125.61 238.532M40 128C38.046 126.046 38 124.667 38 68C38 11.333 38.046 9.954 40 8C41.97 6.03 43.333 6 132 6C220.667 6 222.03 6.03 224 8C225.954 9.954 226 11.333 226 68C226 124.667 225.954 126.046 224 128C222.9 129.1 221.1 130 220 130C218.9 130 217.1 129.1 216 128C214.049 126.049 214 124.667 214 72L214 18L188 18L162 18L162 48C162 76.667 161.911 78.089 160 80C158.103 81.897 156.667 82 132 82C107.333 82 105.897 81.897 104 80C102.089 78.089 102 76.667 102 48L102 18L76 18L50 18L50 72C50 124.667 49.951 126.049 48 128C46.9 129.1 45.1 130 44 130C42.9 130 41.1 129.1 40 128M150 44L150 18L132 18L114 18L114 44L114 70L132 70L150 70L150 44" />
    <glyph glyph-name="hybrid-car"
      unicode="&#xEA08;"
      horiz-adv-x="256" d="M113 248.52C82.175 243.375 55.341 228.311 36.141 205.371C3.559 166.445 -3.147 113.046 18.992 68.822C28.476 49.877 33.683 44.154 38.895 46.944C42.919 49.098 42.583 52.378 37.533 60.231C14.399 96.208 11.793 138.163 30.404 175C49.992 213.771 89.036 237.978 132 237.99C163.72 237.999 198.182 222.255 218.104 198.653C237.886 175.218 247.1 148.405 245.647 118.5C244.651 97.987 239.042 80.353 227.822 62.46C223.248 55.164 221.958 52.303 222.419 50.468C223.159 47.52 226.408 45.635 229.438 46.395C233.078 47.309 244.761 66.158 249.612 78.944C255.251 93.809 256 99.09 256 124C256 143.778 255.712 148.296 254.028 154.889C250.098 170.281 244.55 182.063 233.899 197.635C217.364 221.81 188.405 240.718 158.067 247.149C145.567 249.798 124.5 250.439 113 248.52M120.5 209.373C105.152 206.999 88.671 199.666 77.394 190.193C69.383 183.463 62 174.719 62 171.963C62 169.467 65.423 166 67.887 166C68.925 166 73.997 170.162 79.158 175.25C92.438 188.34 101.684 193.314 118.834 196.595C144.048 201.42 169.122 192.678 187.601 172.622C194.157 165.505 196.596 164.596 200 168C202.937 170.937 202.487 173.131 197.75 178.965C187.263 191.882 170.012 202.839 153.5 207.07C145.69 209.071 126.988 210.376 120.5 209.373M96 144C94.19 142.19 94 140.667 94 128L94 114L84 114C69.025 114 69.996 116.24 70.017 81.75C70.037 49.63 70.816 43.754 76.564 32.357C83.083 19.428 95.952 7.613 109.148 2.442C114.868 0.201 116.744 0 132 0C147.256 0 149.132 0.201 154.852 2.442C168.048 7.613 180.917 19.428 187.436 32.357C193.184 43.754 193.963 49.63 193.983 81.75C194.004 116.24 194.975 114 180 114L170 114L170 128C170 140.667 169.81 142.19 168 144C166.9 145.1 165.1 146 164 146C162.9 146 161.1 145.1 160 144C158.19 142.19 158 140.667 158 128L158 114L132 114L106 114L106 128C106 140.667 105.81 142.19 104 144C102.9 145.1 101.1 146 100 146C98.9 146 97.1 145.1 96 144M181.942 77.75C181.896 58.186 181.553 52.228 180.167 46.919C173.505 21.4 145.852 5.01 120.46 11.53C102.412 16.165 88.303 29.797 83.833 46.919C82.447 52.228 82.104 58.186 82.058 77.75L82 102L132 102L182 102L181.942 77.75" />
    <glyph glyph-name="land"
      unicode="&#xEA0C;"
      horiz-adv-x="256" d="M82.324 248.62C76.179 246.611 71.648 243.515 66.542 237.836C55.973 226.08 51.669 208.543 55.43 192.556L56.828 186.611L52.865 182.109C47.488 176.001 41.3 163.103 39.379 154C36.145 138.674 39.523 117.447 47.097 105.507C56.673 90.41 67.554 82.567 84.75 78.368C85.703 78.135 86 72.827 86 56.031C86 35.333 86.121 33.879 88 32C90.546 29.454 93.454 29.454 96 32C97.879 33.879 98 35.333 98 56.031C98 72.827 98.297 78.135 99.25 78.368C116.446 82.567 127.327 90.41 136.903 105.507C144.477 117.447 147.855 138.674 144.621 154C142.7 163.103 136.512 176.001 131.135 182.109L127.172 186.611L128.57 192.556C133.577 213.838 123.572 238.191 106.363 246.611C99.736 249.853 88.872 250.762 82.324 248.62M164.734 248.971C155.938 246.76 146.99 240.151 141.832 232.054C138.261 226.448 138.149 222.604 141.493 220.413C144.953 218.146 148.589 219.285 150.594 223.264C156.47 234.928 170.388 240.895 180.406 236.046C194.136 229.399 200.793 211.261 196.12 193.233C194.954 188.734 194 184.636 194 184.127C194 183.618 196.66 180.266 199.912 176.678C211.123 164.308 215.536 149.756 213.252 132.689C210.763 114.085 200.625 99.188 186.167 92.888C177.58 89.146 178 88.138 178 112.5C178 132.667 177.876 134.124 176 136C173.454 138.546 170.546 138.546 168 136C166.124 134.124 166 132.667 166 112.5C166 87.697 166.786 89.098 155.725 94.196C149.271 97.171 148.607 97.29 146.145 95.915C143.12 94.225 142.11 89.786 144.178 87.271C145.833 85.258 156.805 80.217 161.773 79.186L165.5 78.413L166 55.624C166.463 34.54 166.645 32.729 168.441 31.418C171.132 29.452 173.646 29.646 176 32C177.879 33.879 178 35.333 178 56.031C178 72.827 178.297 78.135 179.25 78.368C196.446 82.567 207.327 90.41 216.903 105.507C224.477 117.447 227.855 138.674 224.621 154C222.7 163.103 216.512 176.001 211.135 182.109L207.172 186.611L208.57 192.556C213.565 213.788 203.568 238.193 186.445 246.57C180.404 249.526 171.057 250.56 164.734 248.971M100.673 235.916C106.385 233.151 112.435 226.107 115.076 219.147C118.315 210.608 118.626 202.9 116.12 193.233C114.954 188.734 114 184.636 114 184.127C114 183.618 116.66 180.266 119.912 176.678C131.123 164.308 135.536 149.756 133.252 132.689C130.763 114.085 120.625 99.188 106.167 92.888C97.58 89.146 98 88.138 98 112.5C98 132.667 97.876 134.124 96 136C94.9 137.1 93.1 138 92 138C90.9 138 89.1 137.1 88 136C86.124 134.124 86 132.667 86 112.5C86 87.825 86.488 88.818 76.651 93.472C57.628 102.471 46.856 126.433 50.943 150.659C52.585 160.396 56.621 168.439 63.891 176.461C67.251 180.168 70 183.618 70 184.127C70 184.636 69.046 188.734 67.88 193.233C66.369 199.06 65.906 203.152 66.271 207.456C68.103 229.113 85.314 243.351 100.673 235.916M27.437 91.839C19.784 87.249 9.197 79.548 7.25 77.154C6.301 75.988 6 66.886 6 39.391C6 19.466 6.273 2.452 6.607 1.582C7.156 0.151 19.099 0 131.607 0L256 0L255.999 39.25L255.998 78.5L247.494 84.5C230.279 96.646 225.423 98.216 222.809 92.481C221.02 88.553 222.699 86.584 234.5 78.777L245.5 71.5L245.764 40.75L246.029 10L132 10L17.971 10L18.236 40.75L18.5 71.5L29.441 78.75C40.811 86.284 41.959 87.337 41.985 90.25C42.005 92.528 38.504 96 36.187 96C35.19 96 31.252 94.128 27.437 91.839" />
    <glyph glyph-name="layout-11"
      unicode="&#xEA09;"
      horiz-adv-x="256" d="M31.924 245.419L29.5 242.839L29.5 176L29.5 109.161L31.924 106.581L34.349 104L74.722 104L115.095 104L117.548 106.646L120 109.292L120 176.191L120 243.091L117.545 245.545L115.091 248L74.72 248L34.349 248L31.924 245.419M149.635 245.927L147 243.855L147 208.382L147 172.909L149.455 170.455L151.909 168L192 168L232.091 168L234.545 170.455L237 172.909L237 208.382L237 243.855L234.365 245.927C231.8 247.945 230.68 248 192 248C153.32 248 152.2 247.945 149.635 245.927M104 176L104 120L74.5 120L45 120L45 176L45 232L74.5 232L104 232L104 176M221 208L221 184L192 184L163 184L163 208L163 232L192 232L221 232L221 208M149.174 138.686L147 136.371L147 69.767C147 33.135 147.273 2.452 147.607 1.582C148.148 0.173 152.995 0 192 0C231.005 0 235.852 0.173 236.393 1.582C236.727 2.452 237 33.198 237 69.907L237 136.651L234.686 138.826C232.388 140.984 232.077 141 191.86 141L151.349 141L149.174 138.686M221 69L221 13L192 13L163 13L163 69L163 125L192 125L221 125L221 69M33.229 76.331C32.53 76.049 31.292 74.532 30.479 72.959C29.263 70.607 29 64.329 29 37.615C29 18.928 29.414 4.041 29.975 2.565L30.95 0L74.275 0C106.639 0 117.904 0.304 118.8 1.2C119.687 2.087 120 11.477 120 37.245L120 72.091L117.545 74.545L115.091 77L74.795 76.921C52.633 76.878 33.928 76.612 33.229 76.331M104 37L104 13L74.5 13L45 13L45 37L45 61L74.5 61L104 61L104 37" />
    <glyph glyph-name="layout-25"
      unicode="&#xEA0A;"
      horiz-adv-x="256" d="M10.455 234.545L8 232.091L8 122.691L8 13.292L10.452 10.646L12.905 8L132.518 8C213.058 8 252.763 8.338 254.066 9.035C255.961 10.049 256 12.372 256 122.928C256 224.917 255.848 235.844 254.418 236.393C253.548 236.727 198.853 237 132.873 237L12.909 237L10.455 234.545M243 192L243 163L133.5 163L24 163L24 192L24 221L133.5 221L243 221L243 192M82.758 85.25L83.015 24L53.508 24L24 24L24 85.515L24 147.03L53.25 146.765L82.5 146.5L82.758 85.25M242.758 85.25L243.015 24L171.008 24L99 24L99 85.507L99 147.013L170.75 146.757L242.5 146.5L242.758 85.25" />
    <glyph glyph-name="light-traffic"
      unicode="&#xEA0B;"
      horiz-adv-x="256" d="M64 248C62.022 246.022 62 244.667 62 124.582C62 57.802 62.273 2.452 62.607 1.582C63.152 0.161 70.199 0 132 0C193.801 0 200.848 0.161 201.393 1.582C201.727 2.452 202 57.802 202 124.582C202 244.667 201.978 246.022 200 248C198.04 249.96 196.667 250 132 250C67.333 250 65.96 249.96 64 248M190 124L190 10L132 10L74 10L74 124L74 238L132 238L190 238L190 124M16 196L28.008 172L36.004 172L44 172L44 196L44 220L23.996 220L3.992 220L16 196M220 196L220 172L227.995 172L235.99 172L245.995 191.99C253.681 207.347 256 212.91 256 215.99L256 220L238 220L220 220L220 196M124.684 216.611C109.522 210.966 105.257 191.956 116.607 180.607C127.583 169.631 145.521 173.113 152.121 187.5C156.725 197.535 151.968 210.346 141.658 215.677C137.49 217.832 129.191 218.289 124.684 216.611M138.977 202.476C142.789 198.666 142.452 192.686 138.211 188.898C133.02 184.259 126.41 185.51 123.479 191.685C120.933 197.051 123.398 203.144 129 205.331C131.675 206.375 136.44 205.011 138.977 202.476M16 124L28.008 100L36.004 100L44 100L44 124L44 148L23.996 148L3.992 148L16 124M220 124L220 100L227.995 100L235.99 100L245.995 119.99C253.681 135.347 256 140.91 256 143.99L256 148L238 148L220 148L220 124M124.684 144.611C109.522 138.966 105.257 119.956 116.607 108.607C127.583 97.631 145.521 101.113 152.121 115.5C156.725 125.535 151.968 138.346 141.658 143.677C137.49 145.832 129.191 146.289 124.684 144.611M138.977 130.476C142.789 126.666 142.452 120.686 138.211 116.898C133.02 112.259 126.41 113.51 123.479 119.685C120.933 125.051 123.398 131.144 129 133.331C131.675 134.375 136.44 133.011 138.977 130.476M16 52L28.008 28L36.004 28L44 28L44 52L44 76L23.996 76L3.992 76L16 52M220 52L220 28L227.995 28L235.99 28L245.995 47.99C253.681 63.347 256 68.91 256 71.99L256 76L238 76L220 76L220 52M124.684 72.611C109.522 66.966 105.257 47.956 116.607 36.607C127.583 25.631 145.521 29.113 152.121 43.5C156.725 53.535 151.968 66.346 141.658 71.677C137.49 73.832 129.191 74.289 124.684 72.611M138.977 58.476C142.789 54.666 142.452 48.686 138.211 44.898C133.02 40.259 126.41 41.51 123.479 47.685C120.933 53.051 123.398 59.144 129 61.331C131.675 62.375 136.44 61.011 138.977 58.476" />
    <glyph glyph-name="menu-4"
      unicode="&#xEA0D;"
      horiz-adv-x="256" d="M245.3333333333333 117.3333333333334H10.6666666666667C4.7786666666667 117.3333333333334 0 122.1013333333334 0 128S4.7786666666667 138.6666666666667 10.6666666666667 138.6666666666667H245.3333333333333C251.2213333333333 138.6666666666667 256 133.8986666666667 256 128S251.2213333333333 117.3333333333334 245.3333333333333 117.3333333333334zM245.3333333333333 192H10.6666666666667C4.7786666666667 192 0 196.768 0 202.6666666666667S4.7786666666667 213.3333333333334 10.6666666666667 213.3333333333334H245.3333333333333C251.2213333333333 213.3333333333334 256 208.5653333333334 256 202.6666666666667S251.2213333333333 192 245.3333333333333 192zM128 42.6666666666667H10.6666666666667C4.7786666666667 42.6666666666667 0 47.4346666666667 0 53.3333333333333S4.7786666666667 64 10.6666666666667 64H128C133.888 64 138.6666666666667 59.232 138.6666666666667 53.3333333333333S133.888 42.6666666666667 128 42.6666666666667z" />
    <glyph glyph-name="new-construction"
      unicode="&#xEA0E;"
      horiz-adv-x="256" d="M136 240C134.089 238.089 134 236.667 134 208C134 179.333 134.089 177.911 136 176C137.1 174.9 138.9 174 140 174C141.1 174 142.9 174.9 144 176C145.892 177.892 146 179.333 146 202.607C146 221.856 146.272 227.12 147.25 226.783C147.938 226.546 170.438 218.548 197.25 209.011L246 191.67L246 100.835L246 10L204 10L162 10L162 80C162 148.667 161.962 150.038 160 152C158.049 153.951 156.667 154 104 154C51.333 154 49.951 153.951 48 152C46.148 150.148 46 148.667 46 132L46 114L28 114C11.333 114 9.852 113.852 8 112C6.05 110.05 6 108.667 6 56.582C6 27.202 6.273 2.452 6.607 1.582C7.156 0.151 19.1 0 131.612 0L256.01 0L255.755 100.622L255.5 201.243L198.5 221.616C167.15 232.821 140.713 241.991 139.75 241.994C138.787 241.997 137.1 241.1 136 240M184 184C182.038 182.038 182 180.667 182 112C182 43.333 182.038 41.962 184 40C185.1 38.9 186.9 38 188 38C189.1 38 190.9 38.9 192 40C193.962 41.962 194 43.333 194 112C194 180.667 193.962 182.038 192 184C190.9 185.1 189.1 186 188 186C186.9 186 185.1 185.1 184 184M216 168C214.043 166.043 214 164.667 214 104C214 43.333 214.043 41.957 216 40C218.546 37.454 221.454 37.454 224 40C225.957 41.957 226 43.333 226 104C226 164.667 225.957 166.043 224 168C222.9 169.1 221.1 170 220 170C218.9 170 217.1 169.1 216 168M150 76L150 10L104 10L58 10L58 76L58 142L104 142L150 142L150 76M88 112C86.9 110.9 86 109.1 86 108C86 106.9 86.9 105.1 88 104C89.81 102.19 91.333 102 104 102C116.667 102 118.19 102.19 120 104C121.1 105.1 122 106.9 122 108C122 109.1 121.1 110.9 120 112C118.19 113.81 116.667 114 104 114C91.333 114 89.81 113.81 88 112M46 56L46 10L32 10L18 10L18 56L18 102L32 102L46 102L46 56M88 80C86.9 78.9 86 77.1 86 76C86 74.9 86.9 73.1 88 72C89.81 70.19 91.333 70 104 70C116.667 70 118.19 70.19 120 72C121.1 73.1 122 74.9 122 76C122 77.1 121.1 78.9 120 80C118.19 81.81 116.667 82 104 82C91.333 82 89.81 81.81 88 80M88 48C86.9 46.9 86 45.1 86 44C86 42.9 86.9 41.1 88 40C89.81 38.19 91.333 38 104 38C116.667 38 118.19 38.19 120 40C121.1 41.1 122 42.9 122 44C122 45.1 121.1 46.9 120 48C118.19 49.81 116.667 50 104 50C91.333 50 89.81 49.81 88 48" />
    <glyph glyph-name="preferences"
      unicode="&#xEA0F;"
      horiz-adv-x="256" d="M42.455 245.545C40.09 243.181 40 242.594 40 229.545L40 216L26.455 216C13.406 216 12.819 215.91 10.455 213.545C7.266 210.357 7.265 206.085 10.452 202.646C12.872 200.036 13.086 200 26.452 200L40 200L40 186.646C40 173.857 40.104 173.18 42.452 170.646L44.905 168L69.278 168L93.651 168L96.076 170.581L98.5 173.161L98.5 208L98.5 242.839L96.076 245.419L93.651 248L69.28 248L44.909 248L42.455 245.545M83 208L83 184L69.5 184L56 184L56 208L56 232L69.5 232L83 232L83 208M128.789 214.637C126.549 212.934 124.893 208.478 125.677 206.259C126.019 205.291 127.209 203.487 128.323 202.25L130.349 200L191.24 200C231.302 200 252.793 200.354 254.066 201.035C256.902 202.553 256.902 213.447 254.066 214.965C250.962 216.626 130.994 216.311 128.789 214.637M151.5 161.845C147.389 159.597 147 158.082 147 144.309L147 131L80.423 131L13.846 131L10.923 128.077C7.529 124.683 7.187 121.226 9.911 117.861L11.823 115.5L79.161 115L146.5 114.5L146.781 101.032C147.184 81.659 145.011 83 176 83C200.475 83 200.667 83.017 202.826 85.314C204.972 87.599 205 88.08 205 122.233C205 141.265 204.72 157.565 204.379 158.455C202.866 162.399 199.05 163.001 175.8 162.97C161.6 162.95 152.774 162.542 151.5 161.845M189 123L189 99L176 99L163 99L163 123L163 147L176 147L189 147L189 123M237.357 130.07C234.54 128.852 232 125.137 232 122.232C232 120.954 233.105 118.805 234.455 117.455C236.65 115.259 237.751 115 244.873 115C255.979 115 256 115.014 256 122.548C256 126.289 255.523 129.177 254.835 129.602C252.996 130.739 239.727 131.094 237.357 130.07M42.455 74.545C40.09 72.181 40 71.594 40 58.545L40 45L26.455 45C13.406 45 12.819 44.91 10.455 42.545C7.347 39.438 7.332 35.889 10.411 32.306C12.802 29.523 12.935 29.497 26.411 29.173L40 28.845L40 15.623C40 6.672 40.388 2.012 41.2 1.2C42.075 0.325 49.806 0 69.725 0L97.05 0L98.025 2.565C98.586 4.041 99 18.928 99 37.615C99 71.652 98.634 74.775 94.455 76.379C93.565 76.72 82.053 77 68.873 77L44.909 77L42.455 74.545M82.768 37.25L82.5 13.5L69.25 13.221L56 12.942L56 36.971L56 61L69.518 61L83.036 61L82.768 37.25M128.881 43.993C126.26 42.462 124.756 37.771 125.912 34.732C128.113 28.942 127.449 29 191.885 29C227.79 29 251.873 29.382 253.435 29.975C255.821 30.882 256 31.399 256 37.368C256 42.298 255.633 43.927 254.418 44.393C251.754 45.415 130.655 45.03 128.881 43.993" />
    <glyph glyph-name="road-2"
      unicode="&#xEA10;"
      horiz-adv-x="256" d="M80.603 240.699C78.201 238.943 5.651 13.527 6.456 10.321C7.582 5.835 14.736 4.764 16.87 8.762C18.245 11.338 90 234.833 90 236.54C90 238.581 86.363 242 84.191 242C83.196 242 81.582 241.415 80.603 240.699M176 240C174.9 238.9 174 237.337 174 236.527C174 235.272 207.294 131 238.103 35.765C247.57 6.5 248.306 5.107 253.593 6.434C255.816 6.992 255.999 7.514 255.982 13.269C255.967 18.697 251.4 33.679 220.564 129.454C196.866 203.061 184.577 239.836 183.391 240.704C180.863 242.552 178.309 242.309 176 240M128 216C126.19 214.19 126 212.667 126 200C126 187.333 126.19 185.81 128 184C129.1 182.9 130.9 182 132 182C133.1 182 134.9 182.9 136 184C137.81 185.81 138 187.333 138 200C138 212.667 137.81 214.19 136 216C134.9 217.1 133.1 218 132 218C130.9 218 129.1 217.1 128 216M128 152C126.148 150.148 126 148.667 126 132C126 115.333 126.148 113.852 128 112C129.1 110.9 130.9 110 132 110C133.1 110 134.9 110.9 136 112C137.852 113.852 138 115.333 138 132C138 148.667 137.852 150.148 136 152C134.9 153.1 133.1 154 132 154C130.9 154 129.1 153.1 128 152M128 80C126.121 78.121 126 76.667 126 56C126 35.333 126.121 33.879 128 32C129.1 30.9 130.9 30 132 30C133.1 30 134.9 30.9 136 32C137.879 33.879 138 35.333 138 56C138 76.667 137.879 78.121 136 80C134.9 81.1 133.1 82 132 82C130.9 82 129.1 81.1 128 80" />
    <glyph glyph-name="search"
      unicode="&#xEA11;"
      horiz-adv-x="256" d="M93 235.063C76.137 231.501 61.586 224.018 49.302 212.593C35.72 199.961 27.853 187.373 22.371 169.5C19.832 161.223 19.61 159.175 19.61 144C19.61 128.904 19.84 126.752 22.314 118.704C32.518 85.511 56.283 62.587 90.162 53.259C99.107 50.796 124.893 50.796 133.838 53.259C167.666 62.573 191.498 85.562 201.688 118.712C204.16 126.751 204.39 128.907 204.39 144C204.39 159.175 204.168 161.223 201.629 169.5C196.147 187.373 188.28 199.961 174.698 212.593C153.177 232.61 121.987 241.188 93 235.063M135.167 217.76C161.384 209.23 180.72 188.273 187.075 161.5C188.837 154.077 189.125 150.485 188.716 141C188.135 127.499 186.389 120.431 180.935 109.5C171.552 90.694 155.664 77.038 135.167 70.163C128.245 67.841 125.994 67.592 112 67.592C98.006 67.592 95.755 67.841 88.833 70.163C68.336 77.038 52.448 90.694 43.065 109.5C37.677 120.299 35.884 127.445 35.277 140.535C33.815 172.047 50.08 199.593 78.5 213.735C89.598 219.258 98.636 220.976 114.5 220.579C125.033 220.316 128.955 219.78 135.167 217.76M101.423 193.604C81.847 189.738 65.182 172.003 62 151.649C61.411 147.881 61.222 143.831 61.58 142.649C62.679 139.015 66.144 136 69.22 136C73.949 136 76.548 139.581 77.763 147.771C79.168 157.238 82.236 163.078 89.183 169.509C95.259 175.134 100.302 177.333 109.912 178.548C119.504 179.761 122.928 186.226 117.077 192.077C113.797 195.356 111.454 195.585 101.423 193.604M194 65.706C190.063 63.715 188.627 59.805 190.358 55.796C191.146 53.973 201.8 42.554 214.192 30.25C234.165 10.42 236.955 8 239.849 8C244.027 8 248 12.068 248 16.345C248 18.987 245.006 22.41 225.75 41.774C205.845 61.792 199.929 67.034 197.3 66.985C196.86 66.977 195.375 66.401 194 65.706" />
    <glyph glyph-name="train-speed"
      unicode="&#xEA12;"
      horiz-adv-x="256" d="M34.5 216.601C25.502 214.389 17.935 208.883 12.368 200.499C6.307 191.371 6.025 188.919 6.012 145.25C6 107.299 6.066 105.934 8.004 103.996C9.99 102.01 11.089 101.994 132.754 102.246L255.5 102.5L255.811 107.403C256.017 110.649 255.679 112.588 254.811 113.138C254.09 113.595 200.513 113.976 135.75 113.985L18 114L18 132L18 150L44 150C68.667 150 70.103 150.103 72 152C73.1 153.1 74 154.9 74 156C74 157.1 73.1 158.9 72 160C70.103 161.897 68.667 162 44 162L18 162L18 172.962C18 186.552 20.062 193.017 26.153 198.519C34.455 206.02 25.181 205.443 146.5 206L255.5 206.5L255.811 211.403C256.017 214.649 255.679 216.588 254.811 217.138C252.572 218.558 40.356 218.04 34.5 216.601M104 160C102.9 158.9 102 157.1 102 156C102 154.9 102.9 153.1 104 152C105.964 150.036 107.333 150 179.418 150C219.798 150 253.548 150.273 254.418 150.607C256.653 151.465 256.653 160.535 254.418 161.393C253.548 161.727 219.798 162 179.418 162C107.333 162 105.964 161.964 104 160M32 80C30.9 78.9 30 77.1 30 76C30 74.9 30.9 73.1 32 72C33.733 70.267 35.333 70 44 70C52.667 70 54.267 70.267 56 72C57.1 73.1 58 74.9 58 76C58 77.1 57.1 78.9 56 80C54.267 81.733 52.667 82 44 82C35.333 82 33.733 81.733 32 80M80 80C78.9 78.9 78 77.1 78 76C78 74.9 78.9 73.1 80 72C81.733 70.267 83.333 70 92 70C100.667 70 102.267 70.267 104 72C105.1 73.1 106 74.9 106 76C106 77.1 105.1 78.9 104 80C102.267 81.733 100.667 82 92 82C83.333 82 81.733 81.733 80 80M128 80C126.9 78.9 126 77.1 126 76C126 74.9 126.9 73.1 128 72C129.733 70.267 131.333 70 140 70C148.667 70 150.267 70.267 152 72C153.1 73.1 154 74.9 154 76C154 77.1 153.1 78.9 152 80C150.267 81.733 148.667 82 140 82C131.333 82 129.733 81.733 128 80M176 80C174.9 78.9 174 77.1 174 76C174 74.9 174.9 73.1 176 72C177.733 70.267 179.333 70 188 70C196.667 70 198.267 70.267 200 72C201.1 73.1 202 74.9 202 76C202 77.1 201.1 78.9 200 80C198.267 81.733 196.667 82 188 82C179.333 82 177.733 81.733 176 80M224 80C222.9 78.9 222 77.1 222 76C222 74.9 222.9 73.1 224 72C225.733 70.267 227.333 70 236 70C244.667 70 246.267 70.267 248 72C249.1 73.1 250 74.9 250 76C250 77.1 249.1 78.9 248 80C246.267 81.733 244.667 82 236 82C227.333 82 225.733 81.733 224 80M16 48C14.9 46.9 14 45.1 14 44C14 42.9 14.9 41.1 16 40C17.977 38.023 19.333 38 135.418 38C199.998 38 253.548 38.273 254.418 38.607C256.653 39.465 256.653 48.535 254.418 49.393C253.548 49.727 199.998 50 135.418 50C19.333 50 17.977 49.977 16 48" />
    <glyph glyph-name="train"
      unicode="&#xEA13;"
      horiz-adv-x="256" d="M57.063 247.808C49.735 244.995 42.926 238.091 40.143 230.653C38.018 224.974 38 224.247 38 145.462C38 67.333 38.034 65.966 40 64C41.778 62.222 43.333 62 54 62C60.6 62 66 61.847 66 61.659C66 61.471 59.9 48.823 52.444 33.551C43.275 14.769 38.987 4.929 39.194 3.142C39.475 0.72 39.922 0.475 44.575 0.204L49.65 -0.092L56.847 14.954L64.043 30L131.96 30L199.877 30L207.121 14.954L214.365 -0.092L219.433 0.204C224.077 0.475 224.526 0.72 224.806 3.142C225.013 4.929 220.725 14.769 211.556 33.551C204.1 48.823 198 61.471 198 61.659C198 61.847 203.4 62 210 62C220.667 62 222.222 62.222 224 64C225.966 65.966 226 67.333 226 145.462C226 224.339 225.984 224.967 223.849 230.675C221.053 238.146 214.065 245.084 206.474 247.924C201.048 249.954 199.389 249.999 131.712 249.948C63.999 249.897 62.382 249.851 57.063 247.808M203.5 236.119C208.258 233.934 210.39 231.704 212.462 226.746C213.799 223.544 214 213.342 214 148.532L214 74L132 74L50 74L50 148.532C50 213.342 50.201 223.544 51.538 226.746C53.61 231.704 55.742 233.934 60.5 236.119C64.256 237.844 68.617 237.956 132 237.956C195.383 237.956 199.744 237.844 203.5 236.119M72 216C70.07 214.07 70 212.667 70 176C70 139.333 70.07 137.93 72 136C73.954 134.046 75.333 134 132 134C188.667 134 190.046 134.046 192 136C193.93 137.93 194 139.333 194 176C194 212.667 193.93 214.07 192 216C190.046 217.954 188.667 218 132 218C75.333 218 73.954 217.954 72 216M182 176L182 146L132 146L82 146L82 176L82 206L132 206L182 206L182 176M8 184C6.19 182.19 6 180.667 6 168C6 155.333 6.19 153.81 8 152C9.1 150.9 10.9 150 12 150C13.1 150 14.9 150.9 16 152C17.81 153.81 18 155.333 18 168C18 180.667 17.81 182.19 16 184C14.9 185.1 13.1 186 12 186C10.9 186 9.1 185.1 8 184M248 184C246.19 182.19 246 180.667 246 168C246 155.333 246.19 153.81 248 152C250.074 149.926 251.715 149.57 254.418 150.607C255.774 151.127 256 153.616 256 168C256 182.384 255.774 184.873 254.418 185.393C251.715 186.43 250.074 186.074 248 184M75.5 115.097C71.049 113.142 68.5 109.079 68.5 103.939C68.5 99.738 68.966 98.572 71.769 95.769C74.583 92.955 75.73 92.5 80 92.5C84.27 92.5 85.417 92.955 88.231 95.769C91.045 98.583 91.5 99.73 91.5 104C91.5 108.213 91.033 109.428 88.407 112.055C85.105 115.357 79.239 116.739 75.5 115.097M179.5 115.097C175.049 113.142 172.5 109.079 172.5 103.939C172.5 99.738 172.966 98.572 175.769 95.769C178.583 92.955 179.73 92.5 184 92.5C188.27 92.5 189.417 92.955 192.231 95.769C195.045 98.583 195.5 99.73 195.5 104C195.5 108.213 195.033 109.428 192.407 112.055C189.105 115.357 183.239 116.739 179.5 115.097M189 52L194.018 42L132 42L69.982 42L75 52L80.018 62L132 62L183.982 62L189 52" />
    <glyph glyph-name="tram"
      unicode="&#xEA14;"
      horiz-adv-x="256" d="M64 248C62.9 246.9 62 245.1 62 244C62 242.9 62.9 241.1 64 240C65.752 238.248 67.333 238 76.771 238L87.543 238L93.271 220.72C96.422 211.215 99 203.115 99 202.72C99 202.324 90.917 202 81.038 202C65.123 202 62.422 201.756 57.347 199.857C49.727 197.006 42.994 190.273 40.143 182.653C38.013 176.959 38 176.412 38 90.044C38 42.26 38.273 2.452 38.607 1.582C39.154 0.155 48.314 0 132 0C215.686 0 224.846 0.155 225.393 1.582C225.727 2.452 226 42.26 226 90.044C226 176.513 225.99 176.952 223.849 182.675C221.053 190.146 214.065 197.084 206.474 199.924C201.614 201.742 198.696 202 182.962 202C173.083 202 165 202.324 165 202.72C165 203.115 167.578 211.215 170.729 220.72L176.457 238L187.229 238C196.667 238 198.248 238.248 200 240C202.546 242.546 202.546 245.454 200 248C198.04 249.96 196.667 250 132 250C67.333 250 65.96 249.96 64 248M163 237.28C163 236.885 160.422 228.785 157.271 219.28L151.543 202L132 202L112.457 202L106.729 219.28C103.578 228.785 101 236.885 101 237.28C101 237.676 114.95 238 132 238C149.05 238 163 237.676 163 237.28M203.5 188.119C208.258 185.934 210.39 183.704 212.462 178.746C213.804 175.534 214 164.541 214 92.532L214 10L132 10L50 10L50 92.532C50 164.541 50.196 175.534 51.538 178.746C53.61 183.704 55.742 185.934 60.5 188.119C64.256 189.844 68.617 189.956 132 189.956C195.383 189.956 199.744 189.844 203.5 188.119M72 168C70.058 166.058 70 164.667 70 120C70 75.333 70.058 73.942 72 72C73.954 70.046 75.333 70 132 70C188.667 70 190.046 70.046 192 72C193.942 73.942 194 75.333 194 120C194 164.667 193.942 166.058 192 168C190.046 169.954 188.667 170 132 170C75.333 170 73.954 169.954 72 168M182 120L182 82L132 82L82 82L82 120L82 158L132 158L182 158L182 120M8 128C6.19 126.19 6 124.667 6 112C6 99.333 6.19 97.81 8 96C9.1 94.9 10.9 94 12 94C13.1 94 14.9 94.9 16 96C17.81 97.81 18 99.333 18 112C18 124.667 17.81 126.19 16 128C14.9 129.1 13.1 130 12 130C10.9 130 9.1 129.1 8 128M248 128C246.19 126.19 246 124.667 246 112C246 99.333 246.19 97.81 248 96C250.074 93.926 251.715 93.57 254.418 94.607C255.774 95.127 256 97.616 256 112C256 126.384 255.774 128.873 254.418 129.393C251.715 130.43 250.074 130.074 248 128M75.5 51.097C71.049 49.142 68.5 45.079 68.5 39.939C68.5 35.738 68.966 34.572 71.769 31.769C74.583 28.955 75.73 28.5 80 28.5C84.27 28.5 85.417 28.955 88.231 31.769C91.045 34.583 91.5 35.73 91.5 40C91.5 44.213 91.033 45.428 88.407 48.055C85.105 51.357 79.239 52.739 75.5 51.097M179.5 51.097C175.049 49.142 172.5 45.079 172.5 39.939C172.5 35.738 172.966 34.572 175.769 31.769C178.583 28.955 179.73 28.5 184 28.5C188.27 28.5 189.417 28.955 192.231 31.769C195.045 34.583 195.5 35.73 195.5 40C195.5 44.213 195.033 45.428 192.407 48.055C189.105 51.357 183.239 52.739 179.5 51.097" />
    <glyph glyph-name="zoom"
      unicode="&#xEA15;"
      horiz-adv-x="256" d="M93 235.063C76.137 231.501 61.586 224.018 49.302 212.593C35.72 199.961 27.853 187.373 22.371 169.5C19.832 161.223 19.61 159.175 19.61 144C19.61 128.904 19.84 126.752 22.314 118.704C32.518 85.511 56.283 62.587 90.162 53.259C99.107 50.796 124.893 50.796 133.838 53.259C144.767 56.268 155.163 60.924 163.834 66.693L172.199 72.26L204.385 40.13C233.465 11.101 236.886 8 239.833 8C244.035 8 248 12.059 248 16.36C248 19.054 244.064 23.371 215.82 51.665L183.64 83.901L187.694 89.7C193.45 97.936 198.554 108.517 201.688 118.712C204.16 126.751 204.39 128.907 204.39 144C204.39 159.175 204.168 161.223 201.629 169.5C196.147 187.373 188.28 199.961 174.698 212.593C153.177 232.61 121.987 241.188 93 235.063M135.167 217.76C161.384 209.23 180.72 188.273 187.075 161.5C188.837 154.077 189.125 150.485 188.716 141C188.135 127.499 186.389 120.431 180.935 109.5C171.552 90.694 155.664 77.038 135.167 70.163C128.245 67.841 125.994 67.592 112 67.592C98.006 67.592 95.755 67.841 88.833 70.163C68.336 77.038 52.448 90.694 43.065 109.5C37.677 120.299 35.884 127.445 35.277 140.535C33.815 172.047 50.08 199.593 78.5 213.735C89.598 219.258 98.636 220.976 114.5 220.579C125.033 220.316 128.955 219.78 135.167 217.76" />
  </font>
</defs>
</svg>
