<svg width="48" height="48" viewBox="0 0 48 48" fill="none" xmlns="http://www.w3.org/2000/svg"><path d="M38.5 30.27l3.989 3.6a6.099 6.099 0 01.224 8.84v0a6.1 6.1 0 01-8.84-.224L28.464 36.5" stroke="#577ABB" stroke-width="2" stroke-miterlimit="10" stroke-linecap="square"/><path d="M22.725 19.19L15.5 11.964V9.5l-6-6-6 6 6 6h2.464l7.046 7.046" stroke="#577ABB" stroke-width="2" stroke-miterlimit="10"/><path d="M45.014 10.891l-5.738 5.737-6.9-6.9 5.737-5.738a11.784 11.784 0 00-4.095-.456 10.806 10.806 0 00-9.878 9.877c-.09 1.383.064 2.77.457 4.1L4.5 35.655a3.026 3.026 0 00-.111 4.384l4.575 4.575a3.026 3.026 0 004.381-.114L31.5 24.407c1.33.393 2.717.547 4.1.457a10.806 10.806 0 009.877-9.878 11.783 11.783 0 00-.463-4.095v0z" stroke="#577ABB" stroke-width="2" stroke-miterlimit="10" stroke-linecap="square"/></svg>