<svg width="24" height="24" viewBox="0 0 24 24" fill="none" xmlns="http://www.w3.org/2000/svg"><g clip-path="url(#clip0)" stroke="#577ABB" stroke-width="1.5" stroke-miterlimit="10"><path d="M12.492 12.237L14.7 13.9a2 2 0 01.8 1.6v1h-8v-1a2 2 0 01.8-1.6l2.208-1.663"/><path d="M13.5 9.5a2 2 0 10-4 0v1a2 2 0 104 0v-1z" stroke-linecap="square"/><path d="M2.5 1.5h16a2 2 0 012 2v18a2 2 0 01-2 2h-16v-22zm21 4v4" stroke-linecap="square"/></g><defs><clipPath id="clip0"><path fill="#fff" d="M0 0h24v24H0z"/></clipPath></defs></svg>