<svg width="47" height="48" viewBox="0 0 47 48" fill="none" xmlns="http://www.w3.org/2000/svg"><g clip-path="url(#clip0)" fill="#fff"><path d="M27.449 11.319l-3.63 6.324-3.662-6.324h7.292zM44.11 15.42l-.378-1.105-8.613 2.96.379 1.103 8.613-2.959zM8.704 47.494l.983.496 10.276-20.385-.983-.496L8.704 47.494z"/><path d="M20.222 36.227c9.723 0 17.63-7.914 17.63-17.643 0-9.73-7.907-17.644-17.63-17.644-9.722 0-17.63 7.882-17.63 17.644 0 4.864 1.978 9.275 5.186 12.486l3.565-3.632a12.557 12.557 0 01-3.695-8.887C7.648 11.611 13.288 6 20.19 6c6.935 0 12.542 5.643 12.542 12.551 0 6.94-5.64 12.552-12.542 12.552v5.124h.032z"/><path d="M30.204 17.287l-.81-2.336 16.17-5.578.843 2.368-16.203 5.546zM10.456.03l-.954.55 7.847 13.59.954-.55L10.456.028z"/><path d="M39.083 36.292c-4.699-1.46-7.324-4.087-9.041-9.081-.81-2.368-1.848-3.827-3.014-4.281-1.037-.422-2.333-.195-4.019.68-4.731 2.466-7.324 1.493-8.458.682-1.556-1.103-2.204-3.146-1.847-5.578.486-3.179.486-4.314-2.82-5.125C2.56 11.741.875 7.33.26 4.151l2.723-.55c.55 2.788 1.88 5.837 7.583 7.264 5.93 1.492 5.315 5.416 4.893 8.27-.13.811-.194 2.238.713 2.887 1.005.713 3.079.389 5.542-.876 2.398-1.265 4.537-1.524 6.32-.81 2.009.81 3.5 2.756 4.634 5.967 1.426 4.151 3.402 6.13 7.259 7.33l-.843 2.659z"/><path d="M11.822 31.169l2.315 1.307 7.499-13.305-2.315-1.307-7.499 13.305z"/></g><defs><clipPath id="clip0"><path fill="#fff" d="M0 0h46.667v48H0z"/></clipPath></defs></svg>