<svg width="103" height="51" viewBox="0 0 103 51" fill="none" xmlns="http://www.w3.org/2000/svg"><path d="M57.599 50.298h3.503c2.628 0 4.03-1.244 4.03-3.466 0-1.333-.789-2.31-2.015-2.755.876-.444 1.664-1.244 1.664-2.666 0-1.866-1.489-3.11-3.854-3.11H57.6v11.997zM15.642 13.151h2.103V8.085h6.043v5.066h2.103V1.064h-2.103v4.977h-6.043V1.064h-2.103v12.087zM3.117 21.682H8.81v-1.955H1.015v11.997h2.102V21.682zm8.321 10.043h8.058v-1.867H13.54V26.66h5.43v-1.866h-5.43v-3.11h5.869v-1.867h-7.971v11.909zm25.752 0h2.102V21.681h5.869v10.131h2.102V19.727H37.19v11.997zm16.204-11.998l-1.138 7.465c-.088.533-.35 1.244-.876 1.778-.35.444-.876.622-1.314.8l.788 2.132c.7-.178 1.314-.533 1.84-.977.875-.889 1.401-2.222 1.576-3.466l.964-5.777h3.24v10.131h2.103V19.727h-7.183zM.664 50.298h2.103l.525-6.665 4.03 6.932h.087l4.117-6.932.613 6.665h2.102l-1.577-12.62-5.255 8.977-5.43-8.976-1.315 12.62zm15.854-5.954c0 3.377 2.54 6.132 6.22 6.132 3.59 0 6.218-2.844 6.218-6.22 0-3.378-2.54-6.222-6.219-6.222-3.678 0-6.219 2.844-6.219 6.31zm10.16 0c0 2.31-1.663 4.266-4.028 4.266-2.365 0-4.03-1.955-4.03-4.266 0-2.4 1.665-4.266 4.03-4.266 2.365-.089 4.029 1.867 4.029 4.266zm21.636.978l6.044-6.932h-2.54l-4.73 5.599 1.226 1.333zm-1.226-1.333l4.73 6.31h2.627l-5.693-7.555-1.664 1.245zm0-5.688h-2.102v11.997h2.102V38.301zM59.7 40.078h1.226c1.226 0 1.84.622 1.84 1.511 0 .889-.526 1.689-1.752 1.689H59.7v-3.2zm0 8.443v-3.377h1.401c1.402 0 2.103.71 2.103 1.777 0 .978-.701 1.689-2.103 1.689H59.7v-.09zm8.846 1.777h2.278c2.978 0 4.38-1.777 4.38-3.821 0-2.488-1.752-3.733-4.38-3.733h-.263v-4.443H68.46v11.997h.088zm8.585 0h2.102V38.301h-2.102v11.997zM65.569 28.792h6.92l-.963-1.866h-5.431l-.526 1.866zm3.241-9.687l-6.044 12.62h2.103l4.905-10.132-.964-2.488zm-.963 2.31l4.993 10.31h2.19l-6.307-12.62-.876 2.31zM28.78 7.109c0 3.465 2.715 6.22 6.132 6.22 2.19 0 3.59-.8 4.817-2.132l-1.314-1.422c-.525.533-1.051.977-1.664 1.244-.526.266-1.051.355-1.752.355-2.277 0-4.03-1.955-4.03-4.265 0-2.4 1.753-4.266 4.03-4.266.613 0 1.226.178 1.752.355.613.267 1.051.711 1.576 1.245l1.314-1.6C38.328 1.509 36.927.976 35 .976c-3.591-.09-6.219 2.755-6.219 6.132zm2.277 37.236c0 3.466 2.716 6.22 6.132 6.22 2.19 0 3.591-.799 4.817-2.132L40.694 47.1c-1.052.889-1.928 1.51-3.416 1.51-2.278 0-4.03-1.954-4.03-4.265 0-2.4 1.752-4.266 4.03-4.266 1.4 0 2.364.622 3.328 1.511l1.314-1.51c-1.227-1.245-2.453-1.867-4.642-1.867-3.592-.178-6.22 2.666-6.22 6.132zm-7.97-12.62h2.102V26.66h6.044v5.066h2.102V19.727h-2.102v4.977H25.19v-4.977h-2.102v11.997zm54.219 0h2.102V26.66h6.044v5.066h2.102V19.727h-2.102v4.977h-6.044v-4.977h-2.102v11.997zm15.328-2.932h6.92l-.964-1.866h-5.43l-.526 1.866zm3.153-9.687l-6.043 12.62h2.102l4.905-10.132-.964-2.488zm-.963 2.31l5.08 10.31h2.19l-6.307-12.62-.963 2.31zm-24 23.196c1.664 0 2.453.622 2.453 1.866 0 1.244-.789 1.866-2.453 1.866h-.263v-3.821h.263v.089zm8.759-31.46h2.19l6.394-11.998H85.89l-6.307 11.998zm3.24-5.688l-3.94-6.399H76.43l5.255 8.176 1.139-1.777zm-37.838 5.688h2.102V3.02h3.416V1.064h-8.935V3.02h3.416v10.13zM63.818.798L54.97 8.885v-7.82h-2.102v12.441l8.934-8.176v7.82h2.015V.799zm29.43 12.353h2.102V3.02h3.416V1.064h-9.021V3.02h3.503v10.13zm-23.737 0h2.102V3.02h3.416V1.064h-8.934V3.02h3.504v10.13h-.088zM12.051.798L3.117 8.885v-7.82H1.015v12.441l9.022-8.176v7.82h2.014V.799z" fill="#fff"/></svg>