<svg width="103" height="51" viewBox="0 0 103 51" fill="none" xmlns="http://www.w3.org/2000/svg"><path d="M57.598 50.299h3.504c2.628 0 4.03-1.245 4.03-3.466 0-1.333-.79-2.311-2.015-2.755.876-.445 1.664-1.245 1.664-2.666 0-1.867-1.49-3.11-3.854-3.11h-3.329v11.997zM15.642 13.15h2.102V8.085h6.044v5.066h2.102V1.065h-2.102V6.04h-6.044V1.065h-2.102V13.15zM3.117 21.683H8.81v-1.956H1.014v11.998h2.103V21.682zm8.32 10.042h8.06v-1.867H13.54V26.66h5.43v-1.866h-5.43v-3.11h5.869v-1.867h-7.971v11.909zm25.753 0h2.102V21.682h5.868v10.132h2.103V19.727H37.19v11.998zm16.204-11.998l-1.139 7.465c-.087.534-.35 1.245-.876 1.778-.35.444-.875.622-1.313.8l.788 2.133c.7-.178 1.314-.534 1.84-.978.875-.889 1.4-2.222 1.576-3.466l.963-5.776h3.241v10.13h2.103V19.728h-7.183zM.664 50.3h2.102l.526-6.666 4.029 6.932h.088l4.116-6.932.614 6.666h2.102l-1.577-12.62-5.255 8.976-5.431-8.976L.664 50.3zm15.854-5.955c0 3.377 2.54 6.132 6.22 6.132 3.59 0 6.218-2.843 6.218-6.22 0-3.378-2.54-6.221-6.219-6.221-3.679 0-6.219 2.843-6.219 6.31zm10.16 0c0 2.31-1.664 4.266-4.029 4.266-2.364 0-4.029-1.955-4.029-4.266 0-2.4 1.665-4.266 4.03-4.266 2.364-.088 4.029 1.867 4.029 4.266zm21.636.978l6.044-6.932h-2.54l-4.73 5.599 1.226 1.333zm-1.227-1.333l4.73 6.31h2.628l-5.693-7.554-1.665 1.244zm0-5.688h-2.102V50.3h2.102v-12zm12.614 1.777h1.226c1.226 0 1.84.623 1.84 1.511 0 .889-.526 1.689-1.753 1.689h-1.313v-3.2zm0 8.443v-3.377h1.401c1.402 0 2.102.711 2.102 1.778 0 .977-.7 1.688-2.102 1.688h-1.401v-.089zm8.846 1.778h2.278c2.978 0 4.38-1.778 4.38-3.822 0-2.488-1.753-3.732-4.38-3.732h-.263V38.3H68.46v12h.087zm8.584 0h2.102v-12h-2.102v12zM65.57 28.792h6.92l-.964-1.866h-5.43l-.526 1.866zm3.241-9.687l-6.044 12.62h2.102l4.906-10.131-.964-2.489zm-.963 2.31l4.992 10.31h2.19l-6.306-12.62-.876 2.31zM28.78 7.109c0 3.466 2.715 6.22 6.131 6.22 2.19 0 3.592-.8 4.818-2.132l-1.314-1.422c-.526.533-1.051.978-1.664 1.244-.526.267-1.051.356-1.752.356-2.278 0-4.03-1.956-4.03-4.266 0-2.4 1.752-4.266 4.03-4.266.613 0 1.226.178 1.752.356.613.266 1.05.71 1.576 1.244l1.314-1.6C38.328 1.51 36.927.976 35 .976c-3.591-.089-6.22 2.755-6.22 6.132zm2.277 37.236c0 3.466 2.715 6.221 6.132 6.221 2.19 0 3.59-.8 4.817-2.133L40.693 47.1c-1.05.889-1.927 1.511-3.416 1.511-2.277 0-4.029-1.955-4.029-4.266 0-2.4 1.752-4.266 4.03-4.266 1.4 0 2.364.623 3.328 1.511l1.313-1.51c-1.226-1.245-2.452-1.867-4.642-1.867-3.591-.178-6.219 2.666-6.219 6.132zm-7.97-12.62h2.102V26.66h6.043v5.066h2.103V19.727h-2.103v4.977H25.19v-4.977h-2.103v11.998zm54.218 0h2.103V26.66h6.043v5.066h2.103V19.727h-2.103v4.977H79.41v-4.977h-2.103v11.998zm15.329-2.932h6.92l-.964-1.866h-5.43l-.526 1.866zm3.153-9.687l-6.044 12.62h2.103l4.905-10.131-.964-2.489zm-.963 2.31l5.08 10.31h2.19l-6.307-12.62-.963 2.31zm-24 23.196c1.664 0 2.452.622 2.452 1.866 0 1.244-.788 1.866-2.452 1.866h-.263v-3.821h.263v.089zm8.759-31.46h2.19l6.394-11.997H85.89L79.584 13.15zm3.24-5.688l-3.941-6.398H76.43l5.256 8.176 1.139-1.778zm-37.839 5.688h2.102V3.02h3.416V1.065H41.57V3.02h3.416v10.13zM63.817.798l-8.846 8.087v-7.82h-2.103v12.442l8.935-8.177v7.821h2.014V.798zm29.431 12.353h2.102V3.02h3.416V1.065h-9.022V3.02h3.504v10.13zm-23.737 0h2.102V3.02h3.416V1.065h-8.934V3.02h3.503v10.13h-.087zM12.05.798L3.117 8.885v-7.82H1.014v12.442l9.022-8.177v7.821h2.015V.798z" fill="#1D1D1B"/></svg>