<svg width="48" height="48" viewBox="0 0 48 48" fill="none" xmlns="http://www.w3.org/2000/svg"><path d="M22 30H2V2h40v13" stroke="#577ABB" stroke-width="2" stroke-miterlimit="10" stroke-linecap="square"/><path d="M37 28c4.97 0 9-1.79 9-4s-4.03-4-9-4-9 1.79-9 4 4.03 4 9 4z" stroke="#577ABB" stroke-width="2" stroke-miterlimit="10" stroke-linecap="square"/><path d="M28 24v6c0 2.209 4.029 4 9 4s9-1.791 9-4v-6" stroke="#577ABB" stroke-width="2" stroke-miterlimit="10"/><path d="M28 30v6c0 2.209 4.029 4 9 4s9-1.791 9-4v-6" stroke="#577ABB" stroke-width="2" stroke-miterlimit="10"/><path d="M28 36v6c0 2.209 4.029 4 9 4s9-1.791 9-4v-6" stroke="#577ABB" stroke-width="2" stroke-miterlimit="10"/><path d="M22 20a4 4 0 100-8 4 4 0 000 8z" stroke="#577ABB" stroke-width="2" stroke-miterlimit="10" stroke-linecap="square"/></svg>