<svg width="48" height="48" viewBox="0 0 48 48" fill="none" xmlns="http://www.w3.org/2000/svg"><path d="M27.835 11.68L7 4 3 7.924 20.154 19.36M10.25 31.555l-7.17-.552c-.927-.071-1.44 1.048-.785 1.704l4.424 4.424M36.32 20.165L44 41l-3.924 4L28.64 27.846M16.445 37.75l.552 7.171c.071.926-1.048 1.44-1.704.784l-4.424-4.424" stroke="#577ABB" stroke-width="2" stroke-miterlimit="10"/><path d="M22.686 33.799L7.042 43.702c-1.785 1.071-3.815-.959-2.744-2.744l9.903-15.645L33.757 5.757c2.343-2.343 8.813-3.672 10.485-2 1.656 1.656.343 8.142-2 10.485L22.686 33.799z" stroke="#577ABB" stroke-width="2" stroke-miterlimit="10" stroke-linecap="square"/></svg>