<svg width="24" height="24" viewBox="0 0 24 24" fill="none" xmlns="http://www.w3.org/2000/svg"><g clip-path="url(#clip0)" stroke="#577ABB" stroke-width="1.5" stroke-miterlimit="10"><path d="M14.5 19.5l2.95 2.95a3.5 3.5 0 005 0v0a3.5 3.5 0 000-5L20.5 15.5" stroke-linecap="square"/><path d="M10.425 10.725L7 7.3"/><path d="M4.9 8L7 7.3l.7-2.1-2.8-2.8-2.8 2.8L4.9 8zm18.278-2.578L20.1 8.487l-3.595-3.576 3.08-3.066a4.212 4.212 0 00-2.259-.307 5.615 5.615 0 00-5.133 5.723 4.224 4.224 0 00.307 1.64l-9.855 8.682a3.419 3.419 0 00-.205 4.905v0a3.287 3.287 0 004.928-.2l8.726-9.81a6.73 6.73 0 002.875.2 5.688 5.688 0 004.311-3.986 5.083 5.083 0 00-.102-3.27v0z" stroke-linecap="square"/></g><defs><clipPath id="clip0"><path fill="#fff" d="M0 0h24v24H0z"/></clipPath></defs></svg>