<svg width="24" height="24" viewBox="0 0 24 24" fill="none" xmlns="http://www.w3.org/2000/svg"><g clip-path="url(#clip0)" stroke="#577ABB" stroke-width="1.5" stroke-miterlimit="10" stroke-linecap="square"><path d="M19.5 7.5c-.4 0-.7.1-1 .1v-.1c0-3.3-2.7-6-6-6-2.3 0-4.2 1.2-5.2 3.1-.3-.1-.5-.1-.8-.1-2.8 0-5 2.2-5 5 0 2.5 1.8 4.5 4.2 4.9.6 2.9 3.2 5.1 6.3 5.1 2.8 0 5.2-1.8 6.1-4.3.4.2.9.3 1.4.3 2.2 0 4-1.8 4-4s-1.8-4-4-4zm-16 16a2 2 0 100-4 2 2 0 000 4z"/><path d="M10.5 7.5h3l-3 5h4"/></g><defs><clipPath id="clip0"><path fill="#fff" d="M0 0h24v24H0z"/></clipPath></defs></svg>